# xmcd
#
# Track frame offsets: 
#        150
#        14354
#        28521
#        41590
#        55231
#        70742
#        88983
#        100623
#        112288
#        125797
#        140527
#        159264
#        172024
#        184060
#        199836
#        209203
#        223458
#        236664
#        250416
#        263547
#        275062
#        289572
#
# Disc length: 4053 seconds
#
# Revision: 0
# Processed by: cddbd v1.5.2PL0 Copyright (c) Steve Scherf et al.
# Submitted via: ExactAudioCopyFreeDBPlugin 1.0
#
DISCID=5d0fd316
DTITLE=Various Artist - Villa Mix Festival
DYEAR=2014
DGENRE=Country
TTITLE0=Jorge and Mateus - Calma
TTITLE1=Gusttavo Lima - Fui Fiel
TTITLE2=Israel Novaes - Ah Se Meu Dinheiro Desse
TTITLE3=Humberto and Ronaldo - Louco
TTITLE4=Guilherme and Santiago - Jogado na Rua
TTITLE5=Gusttavo Lima - O Melhor de Mim
TTITLE6=Jorge and Mateus - Logo Eu
TTITLE7=Bruninho and Davi - Me Leva Amor
TTITLE8=Gusttavo Lima - Solto na Night
TTITLE9=Israel Novaes - 5 horas da Manhã
TTITLE10=Guilherme and Santiago - Quando Bebe
TTITLE11=Humberto and Ronaldo - Só Vou Beber Mais Hoje
TTITLE12=Israel Novaes, part. Jorge and Mateus - Vai Entender
TTITLE13=Zezé di Camargo and Luciano - Flores em Vida
TTITLE14=Milionário and José Rico - Estrada da Vida
TTITLE15=Guilherme and Santiago - Meia-Noite e Meia
TTITLE16=Gusttavo Lima - Garrafa Pet
TTITLE17=Israel Novaes - Vó Tô Estourado!
TTITLE18=Humberto and Ronaldo - Alô DJ
TTITLE19=Jorge and Mateus - Seu Olhar
TTITLE20=Matheus and Kauan - Sou Ciumento
TTITLE21=Matheus and Kauan, part. Jorge and Mateus - Mundo Paralelo
EXTD=
EXTT0=
EXTT1=
EXTT2=
EXTT3=
EXTT4=
EXTT5=
EXTT6=
EXTT7=
EXTT8=
EXTT9=
EXTT10=
EXTT11=
EXTT12=
EXTT13=
EXTT14=
EXTT15=
EXTT16=
EXTT17=
EXTT18=
EXTT19=
EXTT20=
EXTT21=
PLAYORDER=
